<?xml version="1.0" encoding="UTF-8"?>
<svg version="1.1" xmlns="http://www.w3.org/2000/svg" width="161" height="100">
<path d="M0 0 C53.13 0 106.26 0 161 0 C161 33 161 66 161 100 C107.87 100 54.74 100 0 100 C0 67 0 34 0 0 Z " fill="#FDFBF8" transform="translate(0,0)"/>
<path d="M0 0 C4.82557822 0.02312577 7.12879921 1.28997628 10.8125 4.3125 C10.4825 5.9625 10.1525 7.6125 9.8125 9.3125 C16.0877707 12.77312722 22.37834971 16.15612439 28.8125 19.3125 C26.43620911 15.16579961 26.43620911 15.16579961 22.8125 12.3125 C22.8125 11.6525 22.8125 10.9925 22.8125 10.3125 C27.91638589 9.73650808 33.02094914 9.1670939 38.1262207 8.60351562 C39.85949034 8.41127059 41.59256875 8.21729269 43.32543945 8.02148438 C45.82974604 7.73882149 48.3346956 7.46259247 50.83984375 7.1875 C51.60272202 7.10000488 52.36560028 7.01250977 53.15159607 6.92236328 C58.39971723 6.3544777 63.53341213 6.23921114 68.8125 6.3125 C67.1625 8.2925 65.5125 10.2725 63.8125 12.3125 C64.44478516 13.50746094 64.44478516 13.50746094 65.08984375 14.7265625 C65.91162109 16.31597656 65.91162109 16.31597656 66.75 17.9375 C67.29527344 18.98164062 67.84054688 20.02578125 68.40234375 21.1015625 C69.77919717 24.23666918 70.41092216 26.92704632 70.8125 30.3125 C69.06109857 29.85955135 67.31142656 29.39991252 65.5625 28.9375 C64.10070312 28.55464844 64.10070312 28.55464844 62.609375 28.1640625 C60.15412697 27.41651491 58.05632595 26.54126183 55.8125 25.3125 C56.43783375 27.83613988 56.43783375 27.83613988 57.8125 30.3125 C61.38249674 31.66330958 64.17020162 31.24909101 67.8125 30.3125 C67.4825 31.6325 67.1525 32.9525 66.8125 34.3125 C72.7525 35.3025 78.6925 36.2925 84.8125 37.3125 C84.8125 37.6425 84.8125 37.9725 84.8125 38.3125 C51.8125 38.3125 18.8125 38.3125 -15.1875 38.3125 C-15.1875 37.9825 -15.1875 37.6525 -15.1875 37.3125 C-7.2675 36.3225 0.6525 35.3325 8.8125 34.3125 C6.8325 32.9925 4.8525 31.6725 2.8125 30.3125 C-0.78798679 25.64341954 -1.66789308 21.07721696 -1.1875 15.3125 C1.92507569 15.3125 3.92015685 15.48611624 6.8125 16.3125 C7.1425 15.3225 7.4725 14.3325 7.8125 13.3125 C8.8125 16.3125 8.8125 16.3125 8.75 19.875 C8.41588936 23.37864641 8.41588936 23.37864641 10.8125 25.3125 C14.27036015 25.81257794 14.27036015 25.81257794 17.8125 25.3125 C19.79489527 23.45125077 19.79489527 23.45125077 20.8125 21.3125 C25.6875 22.1875 25.6875 22.1875 26.8125 23.3125 C27.1875 26.125 27.1875 26.125 26.8125 29.3125 C24.3125 31.6875 24.3125 31.6875 21.8125 33.3125 C24.4525 33.6425 27.0925 33.9725 29.8125 34.3125 C30.2204111 30.09469925 29.75514039 27.09994998 27.8125 23.3125 C21.93618864 18.17686026 14.21626217 13.78042072 6.8125 11.3125 C6.4825 12.3025 6.1525 13.2925 5.8125 14.3125 C1.40311785 13.80857061 -0.97593816 12.3504639 -4.1875 9.3125 C-5.81512805 6.94504101 -6.28245023 5.97715161 -5.875 3.125 C-4.63717689 -0.13835183 -3.32199198 0.10572504 0 0 Z " fill="#1DA21D" transform="translate(45.1875,19.6875)"/>
<path d="M0 0 C6.93 0 13.86 0 21 0 C21 0.33 21 0.66 21 1 C19.95199219 1.03738281 18.90398437 1.07476562 17.82421875 1.11328125 C16.44527695 1.17894515 15.06637229 1.24539235 13.6875 1.3125 C12.65206055 1.34633789 12.65206055 1.34633789 11.59570312 1.38085938 C8.77719034 1.53063542 6.51456197 1.6929227 4.0625 3.15625 C2.53001982 5.81555384 2.4763119 8.14059862 2.3125 11.1875 C2.24675781 12.27417969 2.18101563 13.36085938 2.11328125 14.48046875 C2.07589844 15.31191406 2.03851563 16.14335937 2 17 C2.66 16.67 3.32 16.34 4 16 C5.54023996 15.93049459 7.08334988 15.91547643 8.625 15.9375 C9.85089844 15.95103516 9.85089844 15.95103516 11.1015625 15.96484375 C12.04128906 15.98224609 12.04128906 15.98224609 13 16 C13 14.68 13 13.36 13 12 C14.32 12 15.64 12 17 12 C17.33 13.98 17.66 15.96 18 18 C23.28 18 28.56 18 34 18 C32.35 13.05 30.7 8.1 29 3 C26.03 2.505 26.03 2.505 23 2 C23 1.67 23 1.34 23 1 C25.64 0.67 28.28 0.34 31 0 C31.75559211 1.45544381 32.50406425 2.91458363 33.25 4.375 C33.72308594 5.28121094 34.19617188 6.18742188 34.68359375 7.12109375 C36 10 36 10 36.66015625 12.78515625 C37.40728359 15.82287758 37.95117664 17.60895559 40 20 C45.03727712 22.09898341 50.61427014 22.51152683 56 23 C56 23.33 56 23.66 56 24 C48.0468137 25.38701208 40.09594931 26.35458305 32.0625 27.125 C30.71345581 27.25624268 30.71345581 27.25624268 29.3371582 27.39013672 C17.00307849 28.53497519 17.00307849 28.53497519 14.125 27 C10.78704498 25.42919764 7.65998861 25.87800038 4 26 C3.87625 25.071875 3.87625 25.071875 3.75 24.125 C3.08785794 21.46510021 3.08785794 21.46510021 -1 20 C-0.67 13.4 -0.34 6.8 0 0 Z " fill="#FA890C" transform="translate(53,1)"/>
<path d="M0 0 C-1.65 1.98 -3.3 3.96 -5 6 C-4.33291016 7.22976562 -4.33291016 7.22976562 -3.65234375 8.484375 C-3.08644531 9.56203125 -2.52054688 10.6396875 -1.9375 11.75 C-1.36902344 12.81734375 -0.80054688 13.8846875 -0.21484375 14.984375 C1 18 1 18 0 22 C-5.94 19.69 -11.88 17.38 -18 15 C-18 14.34 -18 13.68 -18 13 C-18.96824707 13.04713135 -18.96824707 13.04713135 -19.95605469 13.09521484 C-22.88701177 13.2201046 -25.8174099 13.29801951 -28.75 13.375 C-30.27367188 13.45041016 -30.27367188 13.45041016 -31.828125 13.52734375 C-34.67124757 13.58345801 -37.21321903 13.57401754 -40 13 C-42.578125 10.0390625 -42.578125 10.0390625 -44 7 C-44.66 6.67 -45.32 6.34 -46 6 C-46 5.34 -46 4.68 -46 4 C-40.89611411 3.42400808 -35.79155086 2.8545939 -30.6862793 2.29101562 C-28.95300966 2.09877059 -27.21993125 1.90479269 -25.48706055 1.70898438 C-22.98275396 1.42632149 -20.4778044 1.15009247 -17.97265625 0.875 C-17.20977798 0.78750488 -16.44689972 0.70000977 -15.66090393 0.60986328 C-10.41278277 0.0419777 -5.27908787 -0.07328886 0 0 Z " fill="#0852C6" transform="translate(114,26)"/>
<path d="M0 0 C1 3 1 3 0.9375 6.5625 C0.60338936 10.06614641 0.60338936 10.06614641 3 12 C6.45786015 12.50007794 6.45786015 12.50007794 10 12 C11.98239527 10.13875077 11.98239527 10.13875077 13 8 C17.875 8.875 17.875 8.875 19 10 C19.375 12.8125 19.375 12.8125 19 16 C16.5 18.375 16.5 18.375 14 20 C15.65 20.33 17.3 20.66 19 21 C19 21.66 19 22.32 19 23 C15.91764631 23.8820177 13.05150596 24.18540263 9.8515625 24.31640625 C8.85189453 24.35838135 7.85222656 24.40035645 6.82226562 24.44360352 C5.76716797 24.48283936 4.71207031 24.5220752 3.625 24.5625 C2.55185547 24.6049585 1.47871094 24.64741699 0.37304688 24.69116211 C-7.42260839 24.98308802 -15.19872379 25.12361177 -23 25 C-23 24.67 -23 24.34 -23 24 C-15.08 23.01 -7.16 22.02 1 21 C-0.98 19.68 -2.96 18.36 -5 17 C-8.60048679 12.33091954 -9.48039308 7.76471696 -9 2 C-5.88742431 2 -3.89234315 2.17361624 -1 3 C-0.67 2.01 -0.34 1.02 0 0 Z " fill="#108410" transform="translate(53,33)"/>
<path d="M0 0 C0.74958984 0.01353516 1.49917969 0.02707031 2.27148438 0.04101562 C4.11879767 0.07631461 5.96574066 0.13012083 7.8125 0.1875 C7.8125 5.1375 7.8125 10.0875 7.8125 15.1875 C6.8225 15.1875 5.8325 15.1875 4.8125 15.1875 C4.4825 13.5375 4.1525 11.8875 3.8125 10.1875 C2.4925 10.1875 1.1725 10.1875 -0.1875 10.1875 C-0.1875 11.5075 -0.1875 12.8275 -0.1875 14.1875 C-3.8175 14.5175 -7.4475 14.8475 -11.1875 15.1875 C-11.26857583 13.25068839 -11.32672475 11.3129066 -11.375 9.375 C-11.40980469 8.29605469 -11.44460937 7.21710937 -11.48046875 6.10546875 C-11.1875 3.1875 -11.1875 3.1875 -10.1875 1.3125 C-6.96224416 -0.50170641 -3.59197712 -0.12234682 0 0 Z " fill="#FEF9F0" transform="translate(66.1875,2.8125)"/>
<path d="M0 0 C-1.65 1.98 -3.3 3.96 -5 6 C-4.55527344 6.81984375 -4.11054687 7.6396875 -3.65234375 8.484375 C-2.80349609 10.10085937 -2.80349609 10.10085937 -1.9375 11.75 C-1.36902344 12.81734375 -0.80054687 13.8846875 -0.21484375 14.984375 C1 18 1 18 0 22 C-5.94 19.69 -11.88 17.38 -18 15 C-16.83018868 9.1509434 -16.83018868 9.1509434 -14 7 C-13.34 7 -12.68 7 -12 7 C-11.34 5.35 -10.68 3.7 -10 2 C-10.99 2.33 -11.98 2.66 -13 3 C-15.57265818 3.07029121 -18.11641431 3.09370832 -20.6875 3.0625 C-21.38939453 3.05798828 -22.09128906 3.05347656 -22.81445312 3.04882812 C-24.54300538 3.03706927 -26.27151365 3.01913454 -28 3 C-28 2.67 -28 2.34 -28 2 C-25.02141273 1.66062892 -22.04230315 1.32837741 -19.0625 1 C-18.23169922 0.90460937 -17.40089844 0.80921875 -16.54492188 0.7109375 C-10.99415957 0.10618519 -5.583649 -0.09014973 0 0 Z " fill="#1C80DF" transform="translate(114,26)"/>
<path d="M0 0 C10.23 0 20.46 0 31 0 C30.01 1.485 30.01 1.485 29 3 C29.83486703 5.85606431 29.83486703 5.85606431 31.3125 8.875 C33.09068054 12.76263854 34.1479931 15.7399655 35 20 C29.39 19.67 23.78 19.34 18 19 C18.99 18.67 19.98 18.34 21 18 C21 13.05 21 8.1 21 3 C16.05 3 11.1 3 6 3 C6 2.67 6 2.34 6 2 C3.03 1.505 3.03 1.505 0 1 C0 0.67 0 0.34 0 0 Z " fill="#FBBC41" transform="translate(53,0)"/>
<path d="M0 0 C1.36125 0.37125 1.36125 0.37125 2.75 0.75 C3.41 2.73 4.07 4.71 4.75 6.75 C8.44541586 7.70024979 11.05458414 7.70024979 14.75 6.75 C14.42 8.07 14.09 9.39 13.75 10.75 C22.66 12.235 22.66 12.235 31.75 13.75 C31.75 14.08 31.75 14.41 31.75 14.75 C23.70959499 14.86804836 15.71669934 14.72136927 7.6875 14.3125 C6.87885498 14.27326416 6.07020996 14.23402832 5.23706055 14.19360352 C1.31992302 13.98019468 -2.42010216 13.66701779 -6.25 12.75 C-6.25 12.42 -6.25 12.09 -6.25 11.75 C-3.61 11.42 -0.97 11.09 1.75 10.75 C-3.2 10.75 -8.15 10.75 -13.25 10.75 C-11.78489456 9.01851175 -10.3167929 7.28939745 -8.828125 5.578125 C-7.60493788 4.16116566 -6.41935847 2.71169808 -5.25 1.25 C-3.25 -0.25 -3.25 -0.25 0 0 Z " fill="#17B417" transform="translate(98.25,43.25)"/>
<path d="M0 0 C4.71567949 0.99939729 8.47998169 3.30550542 12.625 5.6875 C13.78902344 6.32075195 13.78902344 6.32075195 14.9765625 6.96679688 C18.64207179 9.07637383 20.63075749 10.23962688 22.515625 14.12109375 C23.02371252 17.14093654 23.14555605 19.94332295 23 23 C19.7 23 16.4 23 13 23 C13.804375 22.360625 14.60875 21.72125 15.4375 21.0625 C17.2750504 19.59396498 17.2750504 19.59396498 19 18 C19.04080783 16.00041636 19.04254356 13.99954746 19 12 C17.35 11.34 15.7 10.68 14 10 C13.690625 10.639375 13.38125 11.27875 13.0625 11.9375 C12 14 12 14 11 15 C4.65880587 15.46971808 4.65880587 15.46971808 2.28515625 13.77734375 C0.62257097 11.47802368 0.69047651 10.11904033 0.8125 7.3125 C0.85310547 6.10013672 0.85310547 6.10013672 0.89453125 4.86328125 C0.94673828 3.94095703 0.94673828 3.94095703 1 3 C0.67 3.66 0.34 4.32 0 5 C-1.65 4.67 -3.3 4.34 -5 4 C-4.67 3.34 -4.34 2.68 -4 2 C-3.01 2 -2.02 2 -1 2 C-0.67 1.34 -0.34 0.68 0 0 Z " fill="#F9FCF9" transform="translate(52,31)"/>
<path d="M0 0 C0.33 0.66 0.66 1.32 1 2 C2.64363134 2.72159424 4.31050386 3.39351421 6 4 C6 5.32 6 6.64 6 8 C6.66 7.67 7.32 7.34 8 7 C13.36751381 6.64994475 13.36751381 6.64994475 15.86328125 8.03125 C18.62018335 9.28118002 20.30947991 9.02478101 23.3125 8.6875 C29.9747767 8.04572105 36.62515832 7.71107074 43.3125 7.4375 C44.35768799 7.39391357 45.40287598 7.35032715 46.47973633 7.30541992 C48.98642114 7.20176237 51.4931636 7.09991364 54 7 C54 7.33 54 7.66 54 8 C49.7093897 8.50934629 45.41737379 9.00575364 41.125 9.5 C39.92101562 9.64308594 38.71703125 9.78617188 37.4765625 9.93359375 C30.61471333 10.71673958 23.90683975 11.21540245 17 11 C17 11.66 17 12.32 17 13 C17.99 13.33 18.98 13.66 20 14 C20.48919922 15.24330078 20.48919922 15.24330078 20.98828125 16.51171875 C22.72552596 19.19102179 22.72552596 19.19102179 25.29833984 19.50244141 C28.2689993 19.71894972 31.2090418 19.79563019 34.1875 19.8125 C35.22326172 19.83763672 36.25902344 19.86277344 37.32617188 19.88867188 C39.88449579 19.94761943 42.44110605 19.98384257 45 20 C45 20.33 45 20.66 45 21 C29.51914619 22.18028144 19.48172133 21.43366114 7 12 C5.68740243 11.29338141 4.36304913 10.60358867 3 10 C3.33 8.35 3.66 6.7 4 5 C2.35 4.01 0.7 3.02 -1 2 C-0.67 1.34 -0.34 0.68 0 0 Z " fill="#DFEBE0" transform="translate(51,19)"/>
<path d="M0 0 C4.82557822 0.02312577 7.12879921 1.28997628 10.8125 4.3125 C9.65664715 8.22461733 8.45715038 11.1870041 5.8125 14.3125 C1.40311785 13.80857061 -0.97593816 12.3504639 -4.1875 9.3125 C-5.81512805 6.94504101 -6.28245023 5.97715161 -5.875 3.125 C-4.63717689 -0.13835183 -3.32199198 0.10572504 0 0 Z " fill="#0A8F0A" transform="translate(45.1875,19.6875)"/>
<path d="M0 0 C0.82104492 1.81005859 0.82104492 1.81005859 1.48046875 4.1484375 C3.96931988 13.32806467 3.96931988 13.32806467 9.93603516 20.18994141 C14.53671671 21.76746748 19.16685499 22.0175964 24 22 C24 22.33 24 22.66 24 23 C18.39 23.66 12.78 24.32 7 25 C8.32 24.34 9.64 23.68 11 23 C11 22.34 11 21.68 11 21 C10.21496094 20.95101563 9.42992188 20.90203125 8.62109375 20.8515625 C2.80977697 20.4379964 -2.478943 19.88217852 -8 18 C-8 17.67 -8 17.34 -8 17 C-4.7 17 -1.4 17 2 17 C0.35 12.05 -1.3 7.1 -3 2 C-5.97 1.505 -5.97 1.505 -9 1 C-9 0.67 -9 0.34 -9 0 C-3.375 -1.125 -3.375 -1.125 0 0 Z " fill="#FAAA13" transform="translate(85,2)"/>
<path d="M0 0 C1.32 0.33 2.64 0.66 4 1 C4.33 2.32 4.66 3.64 5 5 C5.45375 4.175 5.9075 3.35 6.375 2.5 C9.43867469 -0.41778542 10.18633543 -0.34127949 14.25 -0.3125 C15.83473048 -0.23234745 17.41906283 -0.1357675 19 0 C19 0.99 19 1.98 19 3 C17.68 3 16.36 3 15 3 C15 3.66 15 4.32 15 5 C15.99 5 16.98 5 18 5 C18 5.66 18 6.32 18 7 C17.01 7 16.02 7 15 7 C15 7.66 15 8.32 15 9 C15.99 9 16.98 9 18 9 C18 9.99 18 10.98 18 12 C15.69 12 13.38 12 11 12 C11 9.03 11 6.06 11 3 C9.35 5.97 7.7 8.94 6 12 C5.01 12 4.02 12 3 12 C2.01 8.04 1.02 4.08 0 0 Z " fill="#2476D8" transform="translate(46,63)"/>
<path d="M0 0 C1 1 1 1 1.3125 3.8125 C1 7 1 7 -0.625 9.375 C-3.64835963 11.44361448 -5.40588208 11.46879799 -9 11 C-11 9 -11 9 -11.375 5.5625 C-11 2 -11 2 -9.4375 0 C-6.00881592 -1.40663962 -3.55706853 -0.80537401 0 0 Z " fill="#2480DF" transform="translate(33,64)"/>
<path d="M0 0 C5.28 0 10.56 0 16 0 C12.47412292 4.18185421 8.92446674 8.19095875 5 12 C3.046875 11.3203125 3.046875 11.3203125 1 10 C0.14655092 6.66279528 0.1774895 3.46104529 0 0 Z " fill="#FCFDFC" transform="translate(76,42)"/>
<path d="M0 0 C1.32 0.33 2.64 0.66 4 1 C4.33 2.32 4.66 3.64 5 5 C5.6496875 3.7625 5.6496875 3.7625 6.3125 2.5 C6.869375 1.675 7.42625 0.85 8 0 C8.99 0 9.98 0 11 0 C11 3.96 11 7.92 11 12 C10.01 12 9.02 12 8 12 C7.67 10.68 7.34 9.36 7 8 C5.68 9.32 4.36 10.64 3 12 C2.34 10.68 1.68 9.36 1 8 C0.34 9.32 -0.32 10.64 -1 12 C-1.66 12 -2.32 12 -3 12 C-2.49202991 7.6822542 -1.80317221 3.96697886 0 0 Z " fill="#178F17" transform="translate(112,63)"/>
<path d="M0 0 C0.99 0 1.98 0 3 0 C3.66 1.65 4.32 3.3 5 5 C5.6496875 3.7625 5.6496875 3.7625 6.3125 2.5 C6.869375 1.675 7.42625 0.85 8 0 C8.99 0 9.98 0 11 0 C11 3.96 11 7.92 11 12 C10.01 12 9.02 12 8 12 C7.67 10.68 7.34 9.36 7 8 C5.68 9.32 4.36 10.64 3 12 C2.34 10.68 1.68 9.36 1 8 C0.34 9.32 -0.32 10.64 -1 12 C-1.99 11.67 -2.98 11.34 -4 11 C-2.68 7.37 -1.36 3.74 0 0 Z " fill="#1661CD" transform="translate(9,63)"/>
<path d="M0 0 C0.20625 0.886875 0.4125 1.77375 0.625 2.6875 C2.38304358 6.92278682 4.35373333 8.30493333 8 11 C7.67 12.32 7.34 13.64 7 15 C1.06 12.69 -4.88 10.38 -11 8 C-3 0 -3 0 0 0 Z " fill="#1B5FC5" transform="translate(107,33)"/>
<path d="M0 0 C1.65 0 3.3 0 5 0 C5.69906942 1.59915881 6.38389468 3.20455045 7.0625 4.8125 C7.63677734 6.15248047 7.63677734 6.15248047 8.22265625 7.51953125 C9 10 9 10 8 13 C7.34 12.34 6.68 11.68 6 11 C5.67 12.32 5.34 13.64 5 15 C3.35 15 1.7 15 0 15 C0 10.05 0 5.1 0 0 Z " fill="#FEFBF7" transform="translate(77,3)"/>
<path d="M0 0 C1.36125 0.37125 1.36125 0.37125 2.75 0.75 C1.76 1.08 0.77 1.41 -0.25 1.75 C0.41 4.72 1.07 7.69 1.75 10.75 C-3.2 10.75 -8.15 10.75 -13.25 10.75 C-11.78489456 9.01851175 -10.3167929 7.28939745 -8.828125 5.578125 C-7.60493788 4.16116566 -6.41935847 2.71169808 -5.25 1.25 C-3.25 -0.25 -3.25 -0.25 0 0 Z " fill="#F1FAF1" transform="translate(98.25,43.25)"/>
<path d="M0 0 C1.4540625 0.0309375 1.4540625 0.0309375 2.9375 0.0625 C3.71327388 3.45651072 4.2199844 6.57852575 3.9375 10.0625 C1.9375 12.0625 1.9375 12.0625 -1.6875 12.1875 C-2.80125 12.14625 -3.915 12.105 -5.0625 12.0625 C-4.92212479 10.24956911 -4.77505111 8.4371557 -4.625 6.625 C-4.54378906 5.61566406 -4.46257813 4.60632813 -4.37890625 3.56640625 C-3.91554584 -0.10043357 -3.78745586 0.07729502 0 0 Z " fill="#317AD7" transform="translate(40.0625,62.9375)"/>
<path d="M0 0 C2.33294775 -0.04241723 4.66702567 -0.04092937 7 0 C8 1 8 1 8.125 3.375 C8 6 8 6 7 9 C7.33 9.99 7.66 10.98 8 12 C6.68 12 5.36 12 4 12 C3.67 11.34 3.34 10.68 3 10 C2.67 10.66 2.34 11.32 2 12 C1.01 12 0.02 12 -1 12 C-1.14285714 3.42857143 -1.14285714 3.42857143 0 0 Z " fill="#158515" transform="translate(100,63)"/>
<path d="M0 0 C2.33294775 -0.04241723 4.66702567 -0.04092937 7 0 C8 1 8 1 8.125 3.375 C8 6 8 6 7 9 C7.33 9.99 7.66 10.98 8 12 C6.68 12 5.36 12 4 12 C3.67 11.34 3.34 10.68 3 10 C2.67 10.66 2.34 11.32 2 12 C1.01 12 0.02 12 -1 12 C-0.67 8.04 -0.34 4.08 0 0 Z " fill="#108E10" transform="translate(134,63)"/>
<path d="M0 0 C0.99 0 1.98 0 3 0 C4.59138085 4.17737474 5.21278058 7.53160785 5 12 C4.01 12 3.02 12 2 12 C2 11.34 2 10.68 2 10 C0.35 10 -1.3 10 -3 10 C-3 10.66 -3 11.32 -3 12 C-3.99 12 -4.98 12 -6 12 C-4.68535639 7.39874735 -2.96668552 3.77578157 0 0 Z " fill="#168516" transform="translate(92,63)"/>
<path d="M0 0 C2.625 0.375 2.625 0.375 5 1 C3.515 2.485 3.515 2.485 2 4 C2.99 4.66 3.98 5.32 5 6 C4.125 10.875 4.125 10.875 3 12 C1.00041636 12.04080783 -1.00045254 12.04254356 -3 12 C-3 11.01 -3 10.02 -3 9 C-1.68 8.67 -0.36 8.34 1 8 C-0.32 7.34 -1.64 6.68 -3 6 C-2.42655063 3.13275314 -2.1385485 2.1385485 0 0 Z " fill="#198819" transform="translate(147,63)"/>
<path d="M0 0 C1.98 0 3.96 0 6 0 C6 0.99 6 1.98 6 3 C4.68 3 3.36 3 2 3 C2 3.66 2 4.32 2 5 C2.99 5 3.98 5 5 5 C5 5.66 5 6.32 5 7 C4.01 7 3.02 7 2 7 C2 7.66 2 8.32 2 9 C2.99 9 3.98 9 5 9 C5 9.99 5 10.98 5 12 C2.69 12 0.38 12 -2 12 C-1.85831863 10.56208484 -1.71148957 9.1246763 -1.5625 7.6875 C-1.48128906 6.88699219 -1.40007812 6.08648437 -1.31640625 5.26171875 C-1 3 -1 3 0 0 Z " fill="#1F9D1F" transform="translate(126,63)"/>
<path d="M0 0 C2.5 0.25 2.5 0.25 4.5 2.25 C4.125 5.375 4.125 5.375 3.5 8.25 C1.16705225 8.29241723 -1.16702567 8.29092937 -3.5 8.25 C-4.5 7.25 -4.5 7.25 -4.6875 4.8125 C-4.42807033 1.26696114 -3.53871738 0.35387174 0 0 Z " fill="#FCBE70" transform="translate(45.5,79.75)"/>
<path d="M0 0 C5.75 0.75 5.75 0.75 8 3 C8.4140625 5.6015625 8.4140625 5.6015625 8.625 8.625 C8.69976562 9.62789062 8.77453125 10.63078125 8.8515625 11.6640625 C8.92503906 12.82035156 8.92503906 12.82035156 9 14 C5.7 14 2.4 14 -1 14 C-0.195625 13.360625 0.60875 12.72125 1.4375 12.0625 C3.2750504 10.59396498 3.2750504 10.59396498 5 9 C5.04080783 7.00041636 5.04254356 4.99954746 5 3 C2.525 2.01 2.525 2.01 0 1 C0 0.67 0 0.34 0 0 Z " fill="#E4F3E4" transform="translate(66,40)"/>
<path d="M0 0 C0.99 0 1.98 0 3 0 C2.6875 3.375 2.6875 3.375 2 7 C-1.45245824 9.30163882 -2.94738713 9.34490322 -7 9 C-9 7 -9 7 -9.125 4.375 C-9.08375 3.59125 -9.0425 2.8075 -9 2 C-8.34 2 -7.68 2 -7 2 C-6.67 2.99 -6.34 3.98 -6 5 C-4.35 5 -2.7 5 -1 5 C-0.67 3.35 -0.34 1.7 0 0 Z " fill="#0A4BC0" transform="translate(31,66)"/>
<path d="M0 0 C1.4540625 0.0309375 1.4540625 0.0309375 2.9375 0.0625 C2.9375 1.0525 2.9375 2.0425 2.9375 3.0625 C1.6175 3.0625 0.2975 3.0625 -1.0625 3.0625 C-1.0625 3.7225 -1.0625 4.3825 -1.0625 5.0625 C-0.0725 5.0625 0.9175 5.0625 1.9375 5.0625 C1.9375 5.7225 1.9375 6.3825 1.9375 7.0625 C0.9475 7.3925 -0.0425 7.7225 -1.0625 8.0625 C-1.79573796 10.07758358 -1.79573796 10.07758358 -2.0625 12.0625 C-3.0525 12.0625 -4.0425 12.0625 -5.0625 12.0625 C-4.92212479 10.24956911 -4.77505111 8.4371557 -4.625 6.625 C-4.54378906 5.61566406 -4.46257812 4.60632813 -4.37890625 3.56640625 C-3.91554584 -0.10043357 -3.78745586 0.07729502 0 0 Z " fill="#0C870C" transform="translate(84.0625,62.9375)"/>
<path d="M0 0 C-2.3125 2.5 -2.3125 2.5 -5 5 C-5.99 5 -6.98 5 -8 5 C-8 4.01 -8 3.02 -8 2 C-8.99580078 2.24556641 -8.99580078 2.24556641 -10.01171875 2.49609375 C-13.62883337 3.10603857 -17.15860708 3.10795513 -20.8125 3.0625 C-21.50537109 3.05798828 -22.19824219 3.05347656 -22.91210938 3.04882812 C-24.60811068 3.03713156 -26.30406703 3.01919924 -28 3 C-28 2.67 -28 2.34 -28 2 C-25.02141273 1.66062892 -22.04230315 1.32837741 -19.0625 1 C-18.23169922 0.90460937 -17.40089844 0.80921875 -16.54492188 0.7109375 C-10.99415957 0.10618519 -5.583649 -0.09014973 0 0 Z " fill="#2697EF" transform="translate(114,26)"/>
<path d="M0 0 C0.99 0 1.98 0 3 0 C3.33 0.66 3.66 1.32 4 2 C4.33 1.34 4.66 0.68 5 0 C5.99 0 6.98 0 8 0 C8 2.64 8 5.28 8 8 C7.34 8 6.68 8 6 8 C5.67 7.01 5.34 6.02 5 5 C4.01 5.99 3.02 6.98 2 8 C1.67 7.01 1.34 6.02 1 5 C0.67 5.99 0.34 6.98 0 8 C-0.66 8 -1.32 8 -2 8 C-1.125 2.25 -1.125 2.25 0 0 Z " fill="#FAA01D" transform="translate(79,80)"/>
<path d="M0 0 C4.82557822 0.02312577 7.12879921 1.28997628 10.8125 4.3125 C10.1525 5.6325 9.4925 6.9525 8.8125 8.3125 C8.8125 7.3225 8.8125 6.3325 8.8125 5.3125 C8.05324219 5.27511719 7.29398438 5.23773437 6.51171875 5.19921875 C5.51785156 5.13347656 4.52398437 5.06773438 3.5 5 C2.51386719 4.94199219 1.52773438 4.88398438 0.51171875 4.82421875 C-2.43134457 4.26627187 -3.36932999 3.62709868 -5.1875 1.3125 C-3.63719882 -0.23780118 -2.15073999 0.06844901 0 0 Z " fill="#069F06" transform="translate(45.1875,19.6875)"/>
<path d="M0 0 C2.31 0 4.62 0 7 0 C7 0.99 7 1.98 7 3 C6.01 3 5.02 3 4 3 C4.020625 4.11375 4.04125 5.2275 4.0625 6.375 C4 10 4 10 3 12 C2.01 12 1.02 12 0 12 C0.33 9.03 0.66 6.06 1 3 C0.34 3 -0.32 3 -1 3 C-0.67 2.01 -0.34 1.02 0 0 Z " fill="#1A5DC9" transform="translate(67,63)"/>
<path d="M0 0 C0.99 0 1.98 0 3 0 C3.33 0.66 3.66 1.32 4 2 C5.32 1.34 6.64 0.68 8 0 C7.67 2.64 7.34 5.28 7 8 C4 8 4 8 2.3125 6.5 C1.879375 6.005 1.44625 5.51 1 5 C1 5.99 1 6.98 1 8 C0.34 8 -0.32 8 -1 8 C-0.67 5.36 -0.34 2.72 0 0 Z " fill="#FAAE31" transform="translate(99,80)"/>
<path d="M0 0 C0.99 0 1.98 0 3 0 C3.66 2.31 4.32 4.62 5 7 C4.01 7.66 3.02 8.32 2 9 C1.67 8.67 1.34 8.34 1 8 C0.34 9.32 -0.32 10.64 -1 12 C-1.99 11.67 -2.98 11.34 -4 11 C-2.68 7.37 -1.36 3.74 0 0 Z " fill="#1D68D0" transform="translate(9,63)"/>
<path d="M0 0 C4.56736441 0.70062483 8.5699505 2.31270207 12.8125 4.0625 C13.50537109 4.34416016 14.19824219 4.62582031 14.91210938 4.91601562 C16.60967624 5.60674973 18.30506312 6.30283728 20 7 C20 7.66 20 8.32 20 9 C12.74839665 7.180206 5.87619244 4.93841629 -1 2 C-0.67 1.34 -0.34 0.68 0 0 Z " fill="#15BE15" transform="translate(96,41)"/>
<path d="M0 0 C0.99 0 1.98 0 3 0 C3 0.66 3 1.32 3 2 C3.99 2 4.98 2 6 2 C6 2.66 6 3.32 6 4 C5.01 4 4.02 4 3 4 C3 4.66 3 5.32 3 6 C3.99 6 4.98 6 6 6 C6 6.99 6 7.98 6 9 C3.69 9 1.38 9 -1 9 C-0.67 6.03 -0.34 3.06 0 0 Z " fill="#1F68CF" transform="translate(58,66)"/>
<path d="M0 0 C1.32 0.33 2.64 0.66 4 1 C4 2.65 4 4.3 4 6 C3.01 6 2.02 6 1 6 C0.34 7.98 -0.32 9.96 -1 12 C-1.66 12 -2.32 12 -3 12 C-2.49202991 7.6822542 -1.80317221 3.96697886 0 0 Z " fill="#1B961B" transform="translate(112,63)"/>
<path d="M0 0 C1.60433809 0.47859241 3.20846416 0.95789558 4.8125 1.4375 C6.15248047 1.83775391 6.15248047 1.83775391 7.51953125 2.24609375 C9.35473055 2.80387873 11.18033726 3.39344575 13 4 C12.67 4.99 12.34 5.98 12 7 C12 6.34 12 5.68 12 5 C11.278125 5.350625 10.55625 5.70125 9.8125 6.0625 C6.6367575 7.12108083 5.13477337 7.10140686 2 6 C0 3 0 3 0 0 Z " fill="#D6F3D6" transform="translate(101,45)"/>
<path d="M0 0 C0.33 0 0.66 0 1 0 C1 4.95 1 9.9 1 15 C2.65 15 4.3 15 6 15 C6.33 13.35 6.66 11.7 7 10 C8.9375 10.6875 8.9375 10.6875 11 12 C11.33 13.65 11.66 15.3 12 17 C8.04 16.67 4.08 16.34 0 16 C0 10.72 0 5.44 0 0 Z " fill="#FCD6A2" transform="translate(76,3)"/>
<path d="M0 0 C2.06277107 0.14194764 4.12521031 0.28872216 6.1875 0.4375 C7.91033203 0.55931641 7.91033203 0.55931641 9.66796875 0.68359375 C12.51598171 0.95403812 15.21210482 1.37521747 18 2 C18 2.33 18 2.66 18 3 C12.39 3.66 6.78 4.32 1 5 C2.32 4.34 3.64 3.68 5 3 C5 2.34 5 1.68 5 1 C3.35 1 1.7 1 0 1 C0 0.67 0 0.34 0 0 Z " fill="#FAAC1C" transform="translate(91,22)"/>
<path d="M0 0 C0.33 1.65 0.66 3.3 1 5 C0.030625 5.28875 -0.93875 5.5775 -1.9375 5.875 C-5.10664203 6.64214682 -5.10664203 6.64214682 -6 9 C-7.65 8.67 -9.3 8.34 -11 8 C-3.28571429 0 -3.28571429 0 0 0 Z " fill="#EEF4FC" transform="translate(107,33)"/>
<path d="M0 0 C0.66 0.33 1.32 0.66 2 1 C1.67 4.63 1.34 8.26 1 12 C0.34 11.67 -0.32 11.34 -1 11 C-1 10.34 -1 9.68 -1 9 C-1.99 9 -2.98 9 -4 9 C-4 8.34 -4 7.68 -4 7 C-3.01 7 -2.02 7 -1 7 C-1 6.34 -1 5.68 -1 5 C-1.99 5 -2.98 5 -4 5 C-4 4.34 -4 3.68 -4 3 C-2.68 3 -1.36 3 0 3 C0 2.01 0 1.02 0 0 Z " fill="#D5ECD5" transform="translate(132,63)"/>
<path d="M0 0 C1.65 0 3.3 0 5 0 C5.33 1.32 5.66 2.64 6 4 C4.35 4.33 2.7 4.66 1 5 C1 5.99 1 6.98 1 8 C0.34 8 -0.32 8 -1 8 C-0.67 5.36 -0.34 2.72 0 0 Z " fill="#FAA42C" transform="translate(69,80)"/>
<path d="M0 0 C0.66 0 1.32 0 2 0 C2 1.98 2 3.96 2 6 C2.66 5.67 3.32 5.34 4 5 C4.65555119 2.47266765 4.65555119 2.47266765 5 0 C5.66 0 6.32 0 7 0 C6.125 6.875 6.125 6.875 5 8 C3.33382885 8.04063832 1.66611905 8.042721 0 8 C0 5.36 0 2.72 0 0 Z " fill="#FA961B" transform="translate(53,80)"/>
<path d="M0 0 C1.32 0 2.64 0 4 0 C4 3.11257569 3.82638376 5.10765685 3 8 C1.35 8 -0.3 8 -2 8 C-2 7.34 -2 6.68 -2 6 C-1.34 5.67 -0.68 5.34 0 5 C-0.2784375 4.0409375 -0.2784375 4.0409375 -0.5625 3.0625 C-0.7790625 2.0415625 -0.7790625 2.0415625 -1 1 C-0.67 0.67 -0.34 0.34 0 0 Z " fill="#FAAE26" transform="translate(119,80)"/>
<path d="M0 0 C1.67542976 0.28604898 3.34385343 0.61781233 5 1 C4.67 2.65 4.34 4.3 4 6 C2.35 6 0.7 6 -1 6 C-1.042721 4.33388095 -1.04063832 2.66617115 -1 1 C-0.67 0.67 -0.34 0.34 0 0 Z " fill="#EFF4FB" transform="translate(26,66)"/>
<path d="M0 0 C3.3 0 6.6 0 10 0 C10 0.66 10 1.32 10 2 C10.66 2 11.32 2 12 2 C12 1.34 12 0.68 12 0 C13.32 0.66 14.64 1.32 16 2 C16 2.33 16 2.66 16 3 C10.22192976 3.2358396 5.48675196 2.86783046 0 1 C0 0.67 0 0.34 0 0 Z " fill="#FCC804" transform="translate(77,19)"/>
<path d="M0 0 C1.98 0.495 1.98 0.495 4 1 C3.34 1 2.68 1 2 1 C2 1.66 2 2.32 2 3 C2.66 3 3.32 3 4 3 C4 4.65 4 6.3 4 8 C2.35 8 0.7 8 -1 8 C-0.67 5.36 -0.34 2.72 0 0 Z " fill="#FAA421" transform="translate(91,80)"/>
<path d="M0 0 C1.65 0 3.3 0 5 0 C4.67 2.64 4.34 5.28 4 8 C2.68 8 1.36 8 0 8 C0 5.36 0 2.72 0 0 Z " fill="#FA921F" transform="translate(33,80)"/>
<path d="M0 0 C2.31 0 4.62 0 7 0 C6.34 0.66 5.68 1.32 5 2 C5 3.32 5 4.64 5 6 C3.35 6 1.7 6 0 6 C0 4.02 0 2.04 0 0 Z " fill="#4AB44A" transform="translate(100,63)"/>
<path d="M0 0 C0.66 0 1.32 0 2 0 C2 0.99 2 1.98 2 3 C2.99 2.67 3.98 2.34 5 2 C5.33 1.34 5.66 0.68 6 0 C6.66 0 7.32 0 8 0 C7.125 3.875 7.125 3.875 6 5 C3.66702567 5.04092937 1.33294775 5.04241723 -1 5 C-0.67 3.35 -0.34 1.7 0 0 Z " fill="#0B4ABF" transform="translate(36,70)"/>
<path d="M0 0 C1.98 0.99 3.96 1.98 6 3 C5.67 3.66 5.34 4.32 5 5 C2.67843403 5.40729228 0.3431213 5.74438677 -2 6 C-2.33 4.68 -2.66 3.36 -3 2 C-2.01 1.34 -1.02 0.68 0 0 Z " fill="#E3F0E3" transform="translate(143,68)"/>
<path d="M0 0 C1.98 0 3.96 0 6 0 C5.67 1.98 5.34 3.96 5 6 C4.01 6 3.02 6 2 6 C1.67 5.34 1.34 4.68 1 4 C-0.32 4 -1.64 4 -3 4 C-2.505 3.525625 -2.01 3.05125 -1.5 2.5625 C0.11542197 1.24076302 0.11542197 1.24076302 0 0 Z " fill="#92D392" transform="translate(151,63)"/>
<path d="M0 0 C2.625 0.375 2.625 0.375 5 1 C3.25 3.5 3.25 3.5 1 6 C-0.32 6 -1.64 6 -3 6 C-2.42655063 3.13275314 -2.1385485 2.1385485 0 0 Z " fill="#1FA31F" transform="translate(147,63)"/>
<path d="M0 0 C0.66 0 1.32 0 2 0 C2 0.99 2 1.98 2 3 C3.32 2.67 4.64 2.34 6 2 C6 1.34 6 0.68 6 0 C6.66 0 7.32 0 8 0 C8 1.65 8 3.3 8 5 C5.69 5 3.38 5 1 5 C0.67 3.35 0.34 1.7 0 0 Z " fill="#FA8C13" transform="translate(41,83)"/>
<path d="M0 0 C0.99 0 1.98 0 3 0 C2.75 3.375 2.75 3.375 2 7 C0.02 7.99 0.02 7.99 -2 9 C-1.34 6.03 -0.68 3.06 0 0 Z " fill="#1058C8" transform="translate(31,66)"/>
<path d="M0 0 C2.31 0 4.62 0 7 0 C7 0.99 7 1.98 7 3 C5.35 3 3.7 3 2 3 C1.67 3.66 1.34 4.32 1 5 C1 4.34 1 3.68 1 3 C0.34 3 -0.32 3 -1 3 C-0.67 2.01 -0.34 1.02 0 0 Z " fill="#338DE5" transform="translate(67,63)"/>
<path d="M0 0 C2.97 0 5.94 0 9 0 C8.01 0.495 8.01 0.495 7 1 C7 1.99 7 2.98 7 4 C4.36 3.67 1.72 3.34 -1 3 C-0.67 2.01 -0.34 1.02 0 0 Z " fill="#FBBA6B" transform="translate(106,93)"/>
<path d="M0 0 C3.3 0 6.6 0 10 0 C10 0.99 10 1.98 10 3 C6.6875 3.1875 6.6875 3.1875 3 3 C2.01 2.01 1.02 1.02 0 0 Z " fill="#4497E8" transform="translate(55,63)"/>
<path d="M0 0 C3.08089673 2.77280706 4.68775452 5.06326356 6 9 C5.29875 8.360625 4.5975 7.72125 3.875 7.0625 C0.77158767 4.83613898 -1.24620139 4.34919057 -5 4 C-5 3.67 -5 3.34 -5 3 C-3.35 3 -1.7 3 0 3 C0 2.01 0 1.02 0 0 Z " fill="#2A7BDB" transform="translate(108,35)"/>
<path d="M0 0 C0.33 1.32 0.66 2.64 1 4 C2.32 4 3.64 4 5 4 C5 4.66 5 5.32 5 6 C2.69 6 0.38 6 -2 6 C-1.125 1.125 -1.125 1.125 0 0 Z " fill="#1C871C" transform="translate(126,69)"/>
<path d="M0 0 C2.31 0 4.62 0 7 0 C7.33 0.99 7.66 1.98 8 3 C7.34 3 6.68 3 6 3 C6 3.66 6 4.32 6 5 C5.01 5 4.02 5 3 5 C3 4.01 3 3.02 3 2 C2.34 1.67 1.68 1.34 1 1 C0.67 1.66 0.34 2.32 0 3 C0 2.01 0 1.02 0 0 Z " fill="#5CBF5C" transform="translate(134,63)"/>
<path d="M0 0 C3 1 3 1 4.25 3.375 C5 6 5 6 4 9 C0 4.5 0 4.5 0 0 Z " fill="#0FB60F" transform="translate(46,43)"/>
<path d="M0 0 C2.31 0.33 4.62 0.66 7 1 C7 2.65 7 4.3 7 6 C6.34 6 5.68 6 5 6 C5 5.34 5 4.68 5 4 C4.01 3.67 3.02 3.34 2 3 C2 2.34 2 1.68 2 1 C1.34 0.67 0.68 0.34 0 0 Z " fill="#008A00" transform="translate(47,24)"/>
<path d="M0 0 C1.98 0.495 1.98 0.495 4 1 C3.67 2.32 3.34 3.64 3 5 C1.68 5 0.36 5 -1 5 C-0.67 3.35 -0.34 1.7 0 0 Z " fill="#FBAB57" transform="translate(77,91)"/>
<path d="M0 0 C1.65 0 3.3 0 5 0 C5 0.66 5 1.32 5 2 C4.34 2 3.68 2 3 2 C3 3.98 3 5.96 3 8 C2.34 8 1.68 8 1 8 C0.67 5.36 0.34 2.72 0 0 Z " fill="#FAAA1C" transform="translate(110,80)"/>
<path d="M0 0 C0.33 0.66 0.66 1.32 1 2 C1.99 2 2.98 2 4 2 C3.67 3.98 3.34 5.96 3 8 C2.01 8 1.02 8 0 8 C0 5.36 0 2.72 0 0 Z " fill="#228D22" transform="translate(99,67)"/>
<path d="M0 0 C0.66 0 1.32 0 2 0 C2.6875 1.8125 2.6875 1.8125 3 4 C1.75 5.75 1.75 5.75 0 7 C-0.99 7 -1.98 7 -3 7 C-1.125 1.125 -1.125 1.125 0 0 Z " fill="#0F830F" transform="translate(89,68)"/>
<path d="M0 0 C0.99 0 1.98 0 3 0 C1.92598892 2.91517292 1.22189824 4.77810176 -1 7 C-1.99 6.67 -2.98 6.34 -4 6 C-2.86788359 3.73576718 -1.65956108 1.91487817 0 0 Z " fill="#2878D8" transform="translate(54,64)"/>
<path d="M0 0 C1.98 0 3.96 0 6 0 C6 0.99 6 1.98 6 3 C4.02 3 2.04 3 0 3 C-0.33 3.66 -0.66 4.32 -1 5 C-0.67 3.35 -0.34 1.7 0 0 Z " fill="#2EAD2E" transform="translate(81,63)"/>
<path d="M0 0 C0.33 0 0.66 0 1 0 C1.0825 0.763125 1.165 1.52625 1.25 2.3125 C2.14615794 5.52373261 3.21611025 6.29374499 6 8 C5.67 9.32 5.34 10.64 5 12 C4.67 11.01 4.34 10.02 4 9 C3.34 8.67 2.68 8.34 2 8 C1.67 8.66 1.34 9.32 1 10 C-0.1577506 6.52674819 -0.06866652 3.63932552 0 0 Z " fill="#1F9B1F" transform="translate(44,35)"/>
<path d="M0 0 C2.97 0 5.94 0 9 0 C8.67 0.66 8.34 1.32 8 2 C5.35139573 2.59355614 2.70802678 2.74209269 0 3 C0 2.01 0 1.02 0 0 Z " fill="#0BAB0B" transform="translate(41,20)"/>
<path d="M0 0 C5.94 0 11.88 0 18 0 C18 0.33 18 0.66 18 1 C15.56257869 1.16789126 13.12507454 1.33436133 10.6875 1.5 C9.99720703 1.54769531 9.30691406 1.59539063 8.59570312 1.64453125 C5.72337641 1.83879489 2.87986212 2 0 2 C0 1.34 0 0.68 0 0 Z " fill="#FA9D04" transform="translate(56,1)"/>
<path d="M0 0 C0.66 0 1.32 0 2 0 C2 0.99 2 1.98 2 3 C3.32 3 4.64 3 6 3 C6 3.66 6 4.32 6 5 C3.69 5 1.38 5 -1 5 C-0.67 3.35 -0.34 1.7 0 0 Z " fill="#1450C1" transform="translate(58,70)"/>
<path d="M0 0 C1.32 0.33 2.64 0.66 4 1 C3.01 2.485 3.01 2.485 2 4 C1.67 3.67 1.34 3.34 1 3 C0.67 3.66 0.34 4.32 0 5 C-1.65 4.67 -3.3 4.34 -5 4 C-4.67 3.34 -4.34 2.68 -4 2 C-3.01 2 -2.02 2 -1 2 C-0.67 1.34 -0.34 0.68 0 0 Z " fill="#CEE8CE" transform="translate(52,31)"/>
<path d="M0 0 C0.99 0 1.98 0 3 0 C2.67 2.64 2.34 5.28 2 8 C1.34 8 0.68 8 0 8 C0 5.36 0 2.72 0 0 Z " fill="#FBA83B" transform="translate(63,80)"/>
<path d="M0 0 C0.33 0 0.66 0 1 0 C1 3.3 1 6.6 1 10 C0.34 10 -0.32 10 -1 10 C-2.25 3.375 -2.25 3.375 0 0 Z " fill="#018601" transform="translate(121,64)"/>
<path d="M0 0 C6.75 -0.125 6.75 -0.125 9 1 C9 1.66 9 2.32 9 3 C9.66 3.33 10.32 3.66 11 4 C7.1936543 3.32829194 3.64793184 2.27253436 0 1 C0 0.67 0 0.34 0 0 Z " fill="#C1DFD9" transform="translate(101,42)"/>
<path d="M0 0 C0.99 0 1.98 0 3 0 C2.67 1.65 2.34 3.3 2 5 C1.01 5 0.02 5 -1 5 C-0.67 3.35 -0.34 1.7 0 0 Z " fill="#FBA34D" transform="translate(65,93)"/>
<path d="M0 0 C1.65 0 3.3 0 5 0 C5 1.65 5 3.3 5 5 C4.01 5 3.02 5 2 5 C2 3.68 2 2.36 2 1 C1.34 0.67 0.68 0.34 0 0 Z " fill="#0D990D" transform="translate(103,64)"/>
<path d="M0 0 C0.99 0.33 1.98 0.66 3 1 C2.01 1.495 2.01 1.495 1 2 C1 3.98 1 5.96 1 8 C0.34 8 -0.32 8 -1 8 C-1 7.01 -1 6.02 -1 5 C-1.66 4.67 -2.32 4.34 -3 4 C-2.01 2.68 -1.02 1.36 0 0 Z " fill="#51B551" transform="translate(92,63)"/>
<path d="M0 0 C1.98 0 3.96 0 6 0 C5.01 0.495 5.01 0.495 4 1 C4 2.32 4 3.64 4 5 C3.34 5 2.68 5 2 5 C2 4.01 2 3.02 2 2 C1.01 2.33 0.02 2.66 -1 3 C-0.67 2.01 -0.34 1.02 0 0 Z " fill="#6AACEC" transform="translate(37,63)"/>
<path d="M0 0 C0.99 0.33 1.98 0.66 3 1 C2.34 2.32 1.68 3.64 1 5 C-0.65 4.67 -2.3 4.34 -4 4 C-2.68 2.68 -1.36 1.36 0 0 Z " fill="#DAEBEB" transform="translate(100,37)"/>
<path d="M0 0 C1.32 0 2.64 0 4 0 C3.1875 1.9375 3.1875 1.9375 2 4 C1.01 4.33 0.02 4.66 -1 5 C-0.67 3.35 -0.34 1.7 0 0 Z " fill="#FBA755" transform="translate(41,93)"/>
<path d="M0 0 C0.66 0 1.32 0 2 0 C1.67 2.64 1.34 5.28 1 8 C0.01 8 -0.98 8 -2 8 C-2 7.01 -2 6.02 -2 5 C-1.34 5 -0.68 5 0 5 C0 3.35 0 1.7 0 0 Z " fill="#FAA316" transform="translate(105,80)"/>
<path d="M0 0 C0.99 0 1.98 0 3 0 C3 1.65 3 3.3 3 5 C2.01 5.33 1.02 5.66 0 6 C0 4.02 0 2.04 0 0 Z " fill="#FEF3E5" transform="translate(55,80)"/>
<path d="M0 0 C0.99 0 1.98 0 3 0 C2.67 1.65 2.34 3.3 2 5 C1.01 5 0.02 5 -1 5 C-0.67 3.35 -0.34 1.7 0 0 Z " fill="#104EC0" transform="translate(50,70)"/>
<path d="M0 0 C0.99 0 1.98 0 3 0 C3 1.98 3 3.96 3 6 C2.01 6 1.02 6 0 6 C0 4.02 0 2.04 0 0 Z " fill="#198619" transform="translate(133,69)"/>
<path d="M0 0 C0.66 0 1.32 0 2 0 C2.33 1.65 2.66 3.3 3 5 C2.34 5 1.68 5 1 5 C0.67 5.66 0.34 6.32 0 7 C-0.38133299 5.0085944 -0.71325582 3.00720923 -1 1 C-0.67 0.67 -0.34 0.34 0 0 Z " fill="#0F970F" transform="translate(93,64)"/>
<path d="M0 0 C0.33 1.32 0.66 2.64 1 4 C-1.475 5.485 -1.475 5.485 -4 7 C-3.43628586 3.73045798 -2.50037734 2.17424117 0 0 Z " fill="#136AD1" transform="translate(100,33)"/>
</svg>
